<?xml version="1.0" standalone="no"?>
<!DOCTYPE svg PUBLIC "-//W3C//DTD SVG 20010904//EN"
 "http://www.w3.org/TR/2001/REC-SVG-20010904/DTD/svg10.dtd">
<svg version="1.0" xmlns="http://www.w3.org/2000/svg"
 width="1600.000000pt" height="1600.000000pt" viewBox="0 0 1600.000000 1600.000000"
 preserveAspectRatio="xMidYMid meet">
<metadata>
Created by potrace 1.14, written by Peter Selinger 2001-2017
</metadata>
<g transform="translate(0.000000,1600.000000) scale(0.100000,-0.100000)"
fill="#000000" stroke="none">
<path d="M2098 10752 c-47 -2 -60 -7 -69 -24 -8 -14 -11 -150 -10 -447 0 -234
1 -433 2 -441 0 -8 0 -734 -1 -1613 0 -1054 3 -1603 9 -1616 6 -10 21 -21 33
-23 13 -3 863 -5 1890 -4 1776 1 1868 2 1885 19 17 17 18 97 17 1640 -2 2505
-2 2471 -17 2491 -13 18 -89 18 -1848 20 -1009 0 -1860 0 -1891 -2z"/>
<path d="M6114 10752 c-12 -2 -26 -14 -33 -28 -8 -19 -11 -558 -11 -2068 0
-1884 1 -2045 17 -2057 13 -12 324 -14 1906 -14 1773 0 1890 1 1901 17 9 13
12 488 13 2063 1 1919 0 2047 -16 2066 l-17 22 -1870 1 c-1028 0 -1879 0
-1890 -2z m3050 -918 c3 -8 2 -12 -4 -9 -6 3 -10 10 -10 16 0 14 7 11 14 -7z"/>
<path d="M10203 10752 c-20 -2 -37 -11 -43 -23 -7 -13 -11 -182 -10 -497 0
-262 1 -1182 1 -2045 1 -1462 2 -1569 18 -1588 l17 -21 1872 0 c1490 0 1879 2
1903 12 l31 13 -4 2058 c-3 1906 -4 2060 -20 2075 -15 15 -154 17 -1875 18
-1022 0 -1873 0 -1890 -2z m3720 -1015 c-26 -25 -49 -44 -51 -42 -2 1 18 23
45 48 26 25 49 44 51 42 2 -1 -18 -23 -45 -48z m-73 -62 c-7 -9 -27 -25 -44
-37 -23 -15 -21 -11 9 16 43 38 55 45 35 21z m-92 -76 c-9 -5 -24 -16 -33 -25
-8 -8 -15 -12 -15 -8 0 11 54 53 60 47 3 -2 -3 -9 -12 -14z m-88 -59 c-19 -17
-38 -30 -44 -30 -9 0 64 58 74 59 3 0 -11 -13 -30 -29z m-60 -38 c0 -4 -13
-16 -30 -25 -17 -10 -30 -13 -30 -8 0 6 6 11 14 11 7 0 19 7 26 15 14 17 20
19 20 7z m-80 -57 c-7 -8 -20 -15 -29 -15 -11 1 -8 5 9 15 32 18 35 18 20 0z
m-20 -265 c0 -5 -2 -10 -4 -10 -3 0 -8 5 -11 10 -3 6 -1 10 4 10 6 0 11 -4 11
-10z m-143 -16 c-3 -3 -12 -4 -19 -1 -8 3 -5 6 6 6 11 1 17 -2 13 -5z m-127
-10 c0 -8 -19 -13 -24 -6 -3 5 1 9 9 9 8 0 15 -2 15 -3z m310 -994 c0 -5 -5
-10 -11 -10 -5 0 -7 5 -4 10 3 6 8 10 11 10 2 0 4 -4 4 -10z m-60 -160 c-6
-11 -13 -20 -16 -20 -2 0 0 9 6 20 6 11 13 20 16 20 2 0 0 -9 -6 -20z m-80
-160 c-6 -11 -13 -20 -16 -20 -2 0 0 9 6 20 6 11 13 20 16 20 2 0 0 -9 -6 -20z
m-46 -75 c-9 -14 -18 -25 -21 -25 -5 0 5 18 20 38 17 22 18 13 1 -13z m-24
-39 c0 -2 -8 -10 -17 -17 -16 -13 -17 -12 -4 4 13 16 21 21 21 13z m-30 -40
c0 -2 -8 -10 -17 -17 -16 -13 -17 -12 -4 4 13 16 21 21 21 13z m-67 -81 c-3
-9 -8 -14 -10 -11 -3 3 -2 9 2 15 9 16 15 13 8 -4z m-64 -68 c-2 -1 -13 -9
-24 -17 -19 -14 -19 -14 -6 3 7 9 18 17 24 17 6 0 8 -1 6 -3z m-49 -41 c0 -2
-8 -10 -17 -17 -16 -13 -17 -12 -4 4 13 16 21 21 21 13z m-1929 -63 c13 -16
12 -17 -3 -4 -10 7 -18 15 -18 17 0 8 8 3 21 -13z m1839 -7 c0 -2 -8 -10 -17
-17 -16 -13 -17 -12 -4 4 13 16 21 21 21 13z m-100 -60 c0 -2 -8 -10 -17 -17
-16 -13 -17 -12 -4 4 13 16 21 21 21 13z m-245 -126 c-3 -5 -12 -10 -18 -10
-7 0 -6 4 3 10 19 12 23 12 15 0z"/>
<path d="M7210 6095 c-71 -19 -95 -32 -147 -73 -71 -55 -122 -146 -140 -247
-6 -36 -6 -126 1 -195 5 -54 49 -154 81 -187 8 -8 18 -20 22 -28 15 -25 115
-85 168 -100 125 -37 275 -11 373 63 26 19 48 39 50 43 2 4 14 20 27 35 13 16
29 40 34 54 5 14 13 34 17 45 10 28 10 26 18 76 13 78 14 139 2 140 -6 1 -93
2 -194 3 l-183 1 2 -71 c1 -39 -1 -76 -5 -83 -9 -14 9 -21 54 -20 75 2 73 3
53 -32 -59 -100 -198 -92 -252 15 -22 43 -25 62 -25 147 1 77 5 105 22 140 53
108 204 119 260 18 16 -27 20 -29 62 -25 51 6 148 17 170 21 33 5 -11 97 -78
164 -46 46 -113 84 -169 97 -61 14 -169 13 -223 -1z"/>
<path d="M9268 6095 c-147 -40 -248 -152 -276 -306 -11 -56 -9 -192 2 -242 8
-32 37 -107 47 -122 96 -130 194 -176 360 -172 85 2 103 6 161 35 78 38 134
93 172 168 33 65 44 120 24 121 -46 1 -213 15 -218 18 -4 2 -12 -13 -20 -33
-21 -58 -41 -84 -83 -102 -79 -35 -162 9 -193 103 -21 64 -15 205 11 260 51
108 197 114 249 10 23 -46 18 -45 156 -28 30 4 65 8 77 9 35 3 37 12 11 68
-43 93 -119 163 -218 202 -57 23 -199 29 -262 11z"/>
<path d="M1830 6090 l-46 -5 1 -100 0 -100 115 0 c63 0 117 -3 120 -7 3 -3 5
-142 5 -307 0 -295 0 -301 20 -302 11 0 65 -1 121 -2 l101 -2 0 301 c0 165 2
305 5 310 4 5 50 8 105 7 54 -1 105 1 113 3 13 3 16 23 16 104 l0 100 -36 0
c-409 4 -603 4 -640 0z"/>
<path d="M2640 6090 l-34 -5 -1 -407 c0 -356 2 -408 15 -409 22 -1 203 -1 218
0 9 1 12 34 12 130 l0 130 48 -2 49 -1 53 -105 c87 -170 69 -156 201 -154 181
2 164 -1 145 28 -9 14 -47 79 -85 144 l-68 120 36 25 c50 35 83 88 96 155 31
152 -31 282 -159 330 -41 15 -80 19 -206 21 -85 1 -184 2 -220 3 -36 1 -81 0
-100 -3z m416 -214 c22 -18 28 -32 28 -64 0 -80 -37 -97 -206 -93 l-28 1 0 90
0 90 89 0 c80 0 93 -3 117 -24z"/>
<path d="M4397 6092 c-16 -3 -17 -38 -17 -413 0 -225 4 -409 8 -410 10 -1 193
-1 217 0 20 1 20 8 20 411 l0 410 -40 1 c-22 0 -70 1 -106 2 -36 1 -73 1 -82
-1z"/>
<path d="M5346 6090 l-49 -5 0 -238 c0 -130 -2 -236 -4 -234 -2 3 -57 109
-122 238 l-118 234 -142 3 -141 3 0 -411 c0 -321 3 -410 13 -411 40 -3 198 -1
202 3 3 2 5 113 5 246 1 133 2 242 4 242 2 0 58 -110 125 -245 85 -169 128
-245 139 -246 19 -1 204 -1 238 0 l22 1 -1 410 c0 371 -1 410 -16 411 -9 0
-36 1 -61 2 -25 1 -67 0 -94 -3z"/>
<path d="M5669 6090 c-1 -3 -3 -188 -3 -412 -2 -362 0 -408 14 -409 20 -1 191
-1 211 0 14 1 16 43 16 411 l0 410 -91 1 c-50 0 -103 2 -118 3 -16 1 -29 -1
-29 -4z"/>
<path d="M6074 6092 c-21 -3 -21 -4 -21 -412 l0 -410 31 -1 c34 -1 165 -1 181
0 6 1 10 89 9 246 -1 135 0 245 2 245 2 0 58 -109 125 -242 67 -134 123 -245
125 -247 6 -7 255 -6 266 0 10 7 17 804 7 813 -4 4 -128 8 -191 7 l-28 -1 -2
-240 -3 -241 -120 241 -120 240 -55 0 c-30 1 -84 2 -120 3 -36 1 -74 1 -86 -1z"/>
<path d="M10872 6092 l-102 -3 2 -411 3 -412 210 2 c116 1 217 3 225 5 64 15
142 42 151 53 6 8 17 14 24 14 27 0 101 100 125 167 32 91 33 238 2 339 -34
111 -140 204 -259 229 -72 15 -214 22 -381 17z m327 -217 c61 -31 89 -99 86
-206 -5 -154 -62 -209 -222 -213 -24 -1 -44 1 -44 4 -4 15 -5 426 -1 434 7 13
148 -1 181 -19z"/>
<path d="M12423 6092 c-20 -3 -22 -10 -25 -81 -2 -42 -1 -98 2 -124 4 -26 4
-49 2 -51 -5 -6 -4 -555 2 -564 3 -6 91 -7 194 -3 l23 1 -1 266 c-1 146 1 268
3 270 4 4 25 -66 33 -106 3 -19 6 -30 44 -175 30 -113 38 -143 44 -172 1 -7 5
-16 9 -19 4 -4 7 -20 7 -36 0 -15 6 -28 13 -29 42 -3 158 -1 163 3 3 3 7 16 9
29 8 40 13 61 35 144 12 44 23 87 25 95 2 8 8 26 13 40 5 14 9 27 9 30 -1 14
48 200 52 200 4 0 6 -121 5 -270 -1 -240 1 -270 15 -271 18 -1 154 -1 189 0
l22 1 0 410 0 410 -45 1 c-25 0 -79 0 -120 0 -41 0 -102 0 -134 0 l-59 -1 -12
-52 c-6 -29 -13 -64 -16 -78 -2 -14 -7 -36 -10 -50 -4 -14 -8 -34 -9 -45 -2
-11 -8 -40 -14 -65 -7 -25 -14 -56 -16 -70 -2 -14 -8 -38 -13 -55 -7 -26 -10
-22 -25 50 -10 44 -18 85 -19 90 -1 6 -5 26 -10 45 -4 19 -13 58 -18 85 -10
51 -18 88 -25 115 -2 8 -4 19 -4 23 -1 4 -68 7 -150 6 -83 0 -153 1 -158 3 -4
2 -18 2 -30 0z"/>
<path d="M13980 6090 c-25 -4 -36 -11 -39 -25 -2 -11 -6 -22 -10 -25 -4 -3
-18 -32 -31 -65 -13 -33 -27 -62 -30 -65 -3 -3 -15 -27 -26 -53 -12 -27 -24
-49 -29 -50 -4 -1 -36 61 -71 138 l-64 140 -135 3 -136 3 33 -63 c18 -35 36
-64 41 -66 4 -2 7 -9 7 -16 0 -7 11 -30 25 -50 13 -20 22 -36 20 -36 -3 0 9
-22 25 -49 17 -26 30 -53 30 -59 0 -6 3 -12 8 -14 4 -1 27 -42 50 -89 l44 -87
-1 -146 c-2 -134 0 -146 16 -147 26 -1 195 -1 213 0 13 1 16 23 15 149 -1 118
2 153 15 177 9 17 55 101 101 189 46 87 101 190 121 229 21 39 36 72 35 74 -6
6 -190 8 -227 3z"/>
<path d="M3677 6083 c-5 -9 -60 -173 -63 -188 -1 -5 -37 -116 -80 -245 -43
-129 -79 -237 -79 -240 -1 -3 -10 -32 -20 -65 -11 -33 -20 -64 -20 -70 0 -6
49 -10 122 -10 130 0 129 -1 139 52 2 12 10 39 17 60 l12 38 136 3 136 3 13
-48 c7 -27 14 -53 16 -60 9 -45 17 -48 148 -48 108 0 125 2 120 15 -3 8 -7 22
-9 30 -2 8 -18 58 -35 110 -17 52 -32 100 -34 105 -1 6 -4 15 -8 20 -3 6 -13
37 -22 70 -9 33 -21 69 -26 80 -5 11 -36 103 -69 205 l-60 185 -165 3 c-90 1
-167 -1 -169 -5z m200 -321 c18 -64 35 -129 38 -143 l6 -26 -81 1 -82 0 7 30
c15 74 69 256 75 256 3 0 19 -53 37 -118z"/>
<path d="M8357 6083 c-5 -9 -29 -81 -33 -98 -1 -5 -28 -86 -59 -180 -31 -93
-57 -174 -59 -180 -4 -18 -67 -210 -76 -230 -19 -46 -40 -119 -34 -124 3 -3
59 -6 125 -6 l119 0 12 35 c7 19 11 38 10 42 -4 14 29 78 41 79 15 1 205 1
233 0 17 -1 24 -11 34 -48 6 -27 15 -55 18 -63 3 -8 6 -18 6 -22 2 -17 22 -20
113 -20 165 0 154 -2 142 30 -6 15 -10 27 -9 27 2 0 -9 32 -19 60 -11 29 -75
224 -77 238 -2 7 -37 113 -78 237 l-75 225 -165 3 c-90 1 -167 -1 -169 -5z
m173 -219 c0 -8 6 -36 14 -62 41 -134 56 -186 56 -197 0 -7 -27 -11 -79 -12
-75 0 -80 1 -79 21 1 11 5 26 10 32 5 7 8 16 7 20 -3 10 11 64 20 79 3 6 6 16
7 23 11 73 44 145 44 96z"/>
<path d="M10067 6083 c-2 -5 -12 -33 -21 -63 -10 -30 -21 -64 -26 -75 -10 -22
-220 -668 -220 -676 0 -2 56 -4 125 -4 l124 0 21 66 c11 37 20 72 20 77 0 10
97 21 106 13 2 -2 41 -3 86 -2 l83 2 18 -60 c9 -33 17 -67 17 -76 0 -8 6 -16
13 -16 41 -4 239 -4 246 1 4 3 -53 188 -127 413 l-133 407 -164 0 c-90 0 -166
-3 -168 -7z m171 -215 c1 -15 11 -53 41 -153 12 -38 23 -82 26 -96 l5 -25 -81
-1 -81 0 7 36 c3 20 13 55 20 78 8 23 16 52 19 65 2 13 9 37 16 53 6 17 11 31
11 33 -1 1 -1 7 -1 12 0 15 16 12 18 -2z"/>
<path d="M11652 5678 l3 -412 298 -1 c164 0 303 2 308 6 8 5 15 138 10 184 -1
6 -71 10 -188 10 l-188 0 -1 63 c0 34 2 63 5 63 3 1 83 2 176 3 l170 1 3 92 3
91 -158 0 c-87 0 -167 1 -178 1 -18 1 -20 8 -21 60 l0 58 184 1 c102 1 186 3
188 5 4 4 7 94 5 155 l-1 32 -310 0 -310 0 2 -412z"/>
</g>
</svg>
